# xmcd CD database file
#
# Track frame offsets:
#	150
#	19590
#	43387
#	63210
#	80567
#	98112
#	118285
#	132080
#	154287
#	170992
#	187480
#	211282
#
# Disc length: 3154 seconds
#
# Revision: 0
# Processed by: cddbd v1.4PL0 Copyright (c) Steve Scherf et al.
# Submitted via: CdAid (MTCDDB.DLL V2003.01.23)
#
DISCID=b40c500c
DTITLE=Ana Marie - Celtic Light
DYEAR=2003
DGENRE=Celtic
TTITLE0=Rory O'g Macrory, An Caitín Bán
TTITLE1=Tiocfaidh mo mhaimí, Winder wie is, My Land
TTITLE2=Let now the Harp, The Legacy
TTITLE3=Chanson, Chanson, Cantiga
TTITLE4=The night dance
TTITLE5=Dear Harp of my country, Mo theaghild, My gentle Harp
TTITLE6=Pavane Dángleterre, Galliarde
TTITLE7=Bainis Pheigi ni eadhra, Famine Song, An Fhidil
TTITLE8=Strike the Harp, Now strike the Gladly
TTITLE9=Branle, English Stamp
TTITLE10=The Bard of Armagh
TTITLE11=The King's Dance, The Harp that once, Two Sisters
EXTD=YEAR: 2003 ID3G:  17 
EXTT0=
EXTT1=
EXTT2=
EXTT3=
EXTT4=
EXTT5=
EXTT6=
EXTT7=
EXTT8=
EXTT9=
EXTT10=
EXTT11=
PLAYORDER=
